<?xml version="1.0" encoding="UTF-8" standalone="no"?>
<!DOCTYPE svg PUBLIC "-//W3C//DTD SVG 1.1//EN"
 "http://www.w3.org/Graphics/SVG/1.1/DTD/svg11.dtd">
<!-- Generated by graphviz version 2.28.0 (20121018.1659)
 -->
<!-- Title: Tasks Pages: 1 -->
<svg width="593pt" height="404pt"
 viewBox="0.00 0.00 593.00 404.00" xmlns="http://www.w3.org/2000/svg" xmlns:xlink="http://www.w3.org/1999/xlink">
<g id="graph1" class="graph" transform="scale(1 1) rotate(0) translate(4 400)">
<title>Tasks</title>
<polygon fill="white" stroke="white" points="-4,5 -4,-400 590,-400 590,5 -4,5"/>
<!-- require -->
<g id="node1" class="node"><title>require</title>
<ellipse fill="none" stroke="black" cx="295" cy="-30" rx="163.112" ry="29.3315"/>
<text text-anchor="middle" x="295" y="-32.8" font-family="Times,serif" font-size="14.00">require.js</text>
<text text-anchor="middle" x="295" y="-16" font-family="Times,serif" font-size="14.00">package and dependency management</text>
</g>
<!-- underscore -->
<g id="node2" class="node"><title>underscore</title>
<ellipse fill="none" stroke="black" cx="76" cy="-126" rx="64.2475" ry="29.3315"/>
<text text-anchor="middle" x="76" y="-128.8" font-family="Times,serif" font-size="14.00">underscore.js</text>
<text text-anchor="middle" x="76" y="-112" font-family="Times,serif" font-size="14.00">functional lib</text>
</g>
<!-- require&#45;&gt;underscore -->
<g id="edge6" class="edge"><title>require&#45;&gt;underscore</title>
<path fill="none" stroke="black" d="M233.705,-57.3092C201.596,-71.0913 162.577,-87.8389 131.385,-101.227"/>
<polygon fill="black" stroke="black" points="129.781,-98.1071 121.972,-105.268 132.542,-104.54 129.781,-98.1071"/>
</g>
<!-- moment -->
<g id="node3" class="node"><title>moment</title>
<ellipse fill="none" stroke="black" cx="395" cy="-126" rx="52.6715" ry="29.3315"/>
<text text-anchor="middle" x="395" y="-128.8" font-family="Times,serif" font-size="14.00">moment.js</text>
<text text-anchor="middle" x="395" y="-112" font-family="Times,serif" font-size="14.00">date lib</text>
</g>
<!-- require&#45;&gt;moment -->
<g id="edge4" class="edge"><title>require&#45;&gt;moment</title>
<path fill="none" stroke="black" d="M324.733,-58.9486C336.162,-69.692 349.291,-82.0339 361.085,-93.1199"/>
<polygon fill="black" stroke="black" points="358.927,-95.8951 368.611,-100.194 363.722,-90.7947 358.927,-95.8951"/>
</g>
<!-- jquery -->
<g id="node4" class="node"><title>jquery</title>
<ellipse fill="none" stroke="black" cx="196" cy="-126" rx="37.7055" ry="18"/>
<text text-anchor="middle" x="196" y="-120.4" font-family="Times,serif" font-size="14.00">jQuery</text>
</g>
<!-- require&#45;&gt;jquery -->
<g id="edge8" class="edge"><title>require&#45;&gt;jquery</title>
<path fill="none" stroke="black" d="M265.565,-58.9486C250.985,-72.7919 233.61,-89.2896 219.872,-102.334"/>
<polygon fill="black" stroke="black" points="217.094,-100.145 212.252,-109.569 221.913,-105.222 217.094,-100.145"/>
</g>
<!-- d3 -->
<g id="node5" class="node"><title>d3</title>
<ellipse fill="none" stroke="black" cx="276" cy="-222" rx="65.5035" ry="29.3315"/>
<text text-anchor="middle" x="276" y="-224.8" font-family="Times,serif" font-size="14.00">d3.js</text>
<text text-anchor="middle" x="276" y="-208" font-family="Times,serif" font-size="14.00">visualizations</text>
</g>
<!-- require&#45;&gt;d3 -->
<g id="edge10" class="edge"><title>require&#45;&gt;d3</title>
<path fill="none" stroke="black" d="M292.156,-59.4449C288.895,-92.0457 283.534,-145.661 279.889,-182.106"/>
<polygon fill="black" stroke="black" points="276.376,-182.062 278.864,-192.361 283.342,-182.759 276.376,-182.062"/>
</g>
<!-- templating -->
<g id="node7" class="node"><title>templating</title>
<ellipse fill="none" stroke="black" cx="412" cy="-222" rx="52.1762" ry="18"/>
<text text-anchor="middle" x="412" y="-216.4" font-family="Times,serif" font-size="14.00">templating</text>
</g>
<!-- require&#45;&gt;templating -->
<g id="edge2" class="edge"><title>require&#45;&gt;templating</title>
<path fill="none" stroke="black" d="M298.826,-59.5919C303.476,-86.3364 313.288,-126.479 333,-156 344.733,-173.573 362.623,-188.851 378.412,-200.171"/>
<polygon fill="black" stroke="black" points="376.698,-203.241 386.916,-206.043 380.675,-197.481 376.698,-203.241"/>
</g>
<!-- logging -->
<g id="node13" class="node"><title>logging</title>
<ellipse fill="none" stroke="black" cx="523" cy="-222" rx="40.5898" ry="18"/>
<text text-anchor="middle" x="523" y="-216.4" font-family="Times,serif" font-size="14.00">logging</text>
</g>
<!-- require&#45;&gt;logging -->
<g id="edge12" class="edge"><title>require&#45;&gt;logging</title>
<path fill="none" stroke="black" d="M384.822,-54.6949C409.913,-64.4713 435.807,-77.8834 456,-96 486.034,-122.945 505.071,-166.615 514.883,-194.556"/>
<polygon fill="black" stroke="black" points="511.58,-195.715 518.084,-204.078 518.215,-193.484 511.58,-195.715"/>
</g>
<!-- backbone -->
<g id="node16" class="node"><title>backbone</title>
<ellipse fill="none" stroke="black" cx="58" cy="-222" rx="58.1442" ry="29.3315"/>
<text text-anchor="middle" x="58" y="-224.8" font-family="Times,serif" font-size="14.00">backbone.js</text>
<text text-anchor="middle" x="58" y="-208" font-family="Times,serif" font-size="14.00">MV*</text>
</g>
<!-- underscore&#45;&gt;backbone -->
<g id="edge36" class="edge"><title>underscore&#45;&gt;backbone</title>
<path fill="none" stroke="black" d="M70.5506,-155.458C68.9116,-164.017 67.0856,-173.553 65.3451,-182.642"/>
<polygon fill="black" stroke="black" points="61.8742,-182.159 63.4309,-192.639 68.7493,-183.475 61.8742,-182.159"/>
</g>
<!-- plugins -->
<g id="node21" class="node"><title>plugins</title>
<ellipse fill="none" stroke="black" cx="234" cy="-306" rx="39.449" ry="18"/>
<text text-anchor="middle" x="234" y="-300.4" font-family="Times,serif" font-size="14.00">plugins</text>
</g>
<!-- underscore&#45;&gt;plugins -->
<g id="edge38" class="edge"><title>underscore&#45;&gt;plugins</title>
<path fill="none" stroke="black" d="M99.6542,-153.648C130.288,-188.16 183.234,-247.808 212.681,-280.982"/>
<polygon fill="black" stroke="black" points="210.377,-283.659 219.633,-288.815 215.612,-279.012 210.377,-283.659"/>
</g>
<!-- moment&#45;&gt;d3 -->
<g id="edge14" class="edge"><title>moment&#45;&gt;d3</title>
<path fill="none" stroke="black" d="M365.278,-150.478C350.271,-162.332 331.858,-176.877 315.66,-189.672"/>
<polygon fill="black" stroke="black" points="313.099,-187.235 307.422,-196.18 317.438,-192.728 313.099,-187.235"/>
</g>
<!-- moment&#45;&gt;logging -->
<g id="edge16" class="edge"><title>moment&#45;&gt;logging</title>
<path fill="none" stroke="black" d="M425.985,-149.755C446.961,-165.159 474.452,-185.348 494.812,-200.3"/>
<polygon fill="black" stroke="black" points="492.93,-203.26 503.061,-206.358 497.073,-197.617 492.93,-203.26"/>
</g>
<!-- jquery&#45;&gt;backbone -->
<g id="edge24" class="edge"><title>jquery&#45;&gt;backbone</title>
<path fill="none" stroke="black" d="M175.34,-141.073C155.633,-154.496 125.353,-175.122 100.49,-192.058"/>
<polygon fill="black" stroke="black" points="98.2415,-189.354 91.9471,-197.877 102.182,-195.14 98.2415,-189.354"/>
</g>
<!-- jquery&#45;&gt;plugins -->
<g id="edge22" class="edge"><title>jquery&#45;&gt;plugins</title>
<path fill="none" stroke="black" d="M193.982,-144.038C191.679,-168.534 189.569,-214.842 201,-252 204.075,-261.996 209.52,-271.986 215.111,-280.554"/>
<polygon fill="black" stroke="black" points="212.327,-282.681 220.898,-288.909 218.081,-278.695 212.327,-282.681"/>
</g>
<!-- d3&#45;&gt;plugins -->
<g id="edge40" class="edge"><title>d3&#45;&gt;plugins</title>
<path fill="none" stroke="black" d="M261.781,-250.761C257.047,-260.003 251.799,-270.25 247.15,-279.327"/>
<polygon fill="black" stroke="black" points="244.013,-277.774 242.569,-288.27 250.243,-280.965 244.013,-277.774"/>
</g>
<!-- templating&#45;&gt;plugins -->
<g id="edge34" class="edge"><title>templating&#45;&gt;plugins</title>
<path fill="none" stroke="black" d="M382.381,-236.92C372.134,-241.718 360.571,-247.113 350,-252 323.446,-264.276 293.403,-277.998 270.545,-288.404"/>
<polygon fill="black" stroke="black" points="268.872,-285.319 261.22,-292.646 271.771,-291.691 268.872,-285.319"/>
</g>
<!-- views -->
<g id="node27" class="node"><title>views</title>
<ellipse fill="none" stroke="black" cx="201" cy="-378" rx="33.6326" ry="18"/>
<text text-anchor="middle" x="201" y="-372.4" font-family="Times,serif" font-size="14.00">views</text>
</g>
<!-- templating&#45;&gt;views -->
<g id="edge32" class="edge"><title>templating&#45;&gt;views</title>
<path fill="none" stroke="black" d="M392.556,-238.907C367.463,-259.247 322.243,-295.273 282,-324 265.307,-335.917 246.12,-348.517 230.612,-358.441"/>
<polygon fill="black" stroke="black" points="228.511,-355.629 221.952,-363.949 232.268,-361.535 228.511,-355.629"/>
</g>
<!-- data -->
<g id="node19" class="node"><title>data</title>
<ellipse fill="none" stroke="black" cx="523" cy="-306" rx="27.2414" ry="18"/>
<text text-anchor="middle" x="523" y="-300.4" font-family="Times,serif" font-size="14.00">data</text>
</g>
<!-- logging&#45;&gt;data -->
<g id="edge18" class="edge"><title>logging&#45;&gt;data</title>
<path fill="none" stroke="black" d="M523,-240.39C523,-251.226 523,-265.399 523,-277.709"/>
<polygon fill="black" stroke="black" points="519.5,-277.916 523,-287.916 526.5,-277.916 519.5,-277.916"/>
</g>
<!-- logging&#45;&gt;plugins -->
<g id="edge20" class="edge"><title>logging&#45;&gt;plugins</title>
<path fill="none" stroke="black" d="M501.334,-237.519C492.798,-242.71 482.723,-248.208 473,-252 409.049,-276.945 330.66,-291.51 281.506,-298.864"/>
<polygon fill="black" stroke="black" points="280.868,-295.42 271.477,-300.325 281.877,-302.347 280.868,-295.42"/>
</g>
<!-- models -->
<g id="node25" class="node"><title>models</title>
<ellipse fill="none" stroke="black" cx="68" cy="-306" rx="38.8646" ry="18"/>
<text text-anchor="middle" x="68" y="-300.4" font-family="Times,serif" font-size="14.00">models</text>
</g>
<!-- backbone&#45;&gt;models -->
<g id="edge26" class="edge"><title>backbone&#45;&gt;models</title>
<path fill="none" stroke="black" d="M61.4975,-251.68C62.5272,-260.123 63.6505,-269.334 64.6694,-277.689"/>
<polygon fill="black" stroke="black" points="61.2043,-278.189 65.8892,-287.691 68.1528,-277.341 61.2043,-278.189"/>
</g>
<!-- backbone&#45;&gt;views -->
<g id="edge28" class="edge"><title>backbone&#45;&gt;views</title>
<path fill="none" stroke="black" d="M82.258,-249.124C109.645,-278.617 153.769,-326.135 179.819,-354.19"/>
<polygon fill="black" stroke="black" points="177.289,-356.609 186.659,-361.555 182.419,-351.846 177.289,-356.609"/>
</g>
<!-- storage -->
<g id="node17" class="node"><title>storage</title>
<ellipse fill="none" stroke="black" cx="523" cy="-378" rx="62.5747" ry="18"/>
<text text-anchor="middle" x="523" y="-372.4" font-family="Times,serif" font-size="14.00">client storage</text>
</g>
<!-- data&#45;&gt;storage -->
<g id="edge44" class="edge"><title>data&#45;&gt;storage</title>
<path fill="none" stroke="black" d="M523,-324.303C523,-332.017 523,-341.288 523,-349.888"/>
<polygon fill="black" stroke="black" points="519.5,-349.896 523,-359.896 526.5,-349.896 519.5,-349.896"/>
</g>
<!-- plugins&#45;&gt;views -->
<g id="edge42" class="edge"><title>plugins&#45;&gt;views</title>
<path fill="none" stroke="black" d="M226.012,-323.945C222.201,-332.027 217.557,-341.879 213.31,-350.888"/>
<polygon fill="black" stroke="black" points="210.013,-349.673 208.915,-360.211 216.345,-352.658 210.013,-349.673"/>
</g>
<!-- models&#45;&gt;views -->
<g id="edge30" class="edge"><title>models&#45;&gt;views</title>
<path fill="none" stroke="black" d="M92.7046,-320.002C114.192,-331.312 145.47,-347.774 168.893,-360.102"/>
<polygon fill="black" stroke="black" points="167.285,-363.21 177.764,-364.771 170.545,-357.016 167.285,-363.21"/>
</g>
</g>
</svg>
