<?xml version="1.0" encoding="UTF-8" standalone="no"?>
<!DOCTYPE svg PUBLIC "-//W3C//DTD SVG 1.1//EN"
 "http://www.w3.org/Graphics/SVG/1.1/DTD/svg11.dtd">
<!-- Generated by graphviz version 2.28.0 (20121018.1659)
 -->
<!-- Title: Tasks Pages: 1 -->
<svg width="534pt" height="260pt"
 viewBox="0.00 0.00 533.73 260.00" xmlns="http://www.w3.org/2000/svg" xmlns:xlink="http://www.w3.org/1999/xlink">
<g id="graph1" class="graph" transform="scale(1 1) rotate(0) translate(4 256)">
<title>Tasks</title>
<polygon fill="white" stroke="white" points="-4,5 -4,-256 530.734,-256 530.734,5 -4,5"/>
<!-- require -->
<g id="node1" class="node"><title>require</title>
<ellipse fill="none" stroke="black" cx="276" cy="-30" rx="163.112" ry="29.3315"/>
<text text-anchor="middle" x="276" y="-32.8" font-family="Times,serif" font-size="14.00">require.js</text>
<text text-anchor="middle" x="276" y="-16" font-family="Times,serif" font-size="14.00">package and dependency management</text>
</g>
<!-- underscore -->
<g id="node2" class="node"><title>underscore</title>
<ellipse fill="none" stroke="black" cx="64" cy="-126" rx="64.2475" ry="29.3315"/>
<text text-anchor="middle" x="64" y="-128.8" font-family="Times,serif" font-size="14.00">underscore.js</text>
<text text-anchor="middle" x="64" y="-112" font-family="Times,serif" font-size="14.00">functional lib</text>
</g>
<!-- require&#45;&gt;underscore -->
<g id="edge6" class="edge"><title>require&#45;&gt;underscore</title>
<path fill="none" stroke="black" d="M216.382,-57.4344C185.66,-71.0562 148.464,-87.549 118.512,-100.83"/>
<polygon fill="black" stroke="black" points="116.782,-97.768 109.059,-105.021 119.619,-104.167 116.782,-97.768"/>
</g>
<!-- moment -->
<g id="node3" class="node"><title>moment</title>
<ellipse fill="none" stroke="black" cx="331" cy="-126" rx="52.6715" ry="29.3315"/>
<text text-anchor="middle" x="331" y="-128.8" font-family="Times,serif" font-size="14.00">moment.js</text>
<text text-anchor="middle" x="331" y="-112" font-family="Times,serif" font-size="14.00">date lib</text>
</g>
<!-- require&#45;&gt;moment -->
<g id="edge4" class="edge"><title>require&#45;&gt;moment</title>
<path fill="none" stroke="black" d="M292.651,-59.4582C298.122,-68.8082 304.275,-79.3241 310.024,-89.15"/>
<polygon fill="black" stroke="black" points="307.088,-91.063 315.159,-97.9266 313.13,-87.5279 307.088,-91.063"/>
</g>
<!-- jquery -->
<g id="node4" class="node"><title>jquery</title>
<ellipse fill="none" stroke="black" cx="222" cy="-126" rx="37.7055" ry="18"/>
<text text-anchor="middle" x="222" y="-120.4" font-family="Times,serif" font-size="14.00">jQuery</text>
</g>
<!-- require&#45;&gt;jquery -->
<g id="edge8" class="edge"><title>require&#45;&gt;jquery</title>
<path fill="none" stroke="black" d="M259.652,-59.4582C252.33,-72.204 243.763,-87.1165 236.652,-99.4942"/>
<polygon fill="black" stroke="black" points="233.49,-97.9729 231.543,-108.387 239.56,-101.46 233.49,-97.9729"/>
</g>
<!-- d3 -->
<g id="node5" class="node"><title>d3</title>
<ellipse fill="none" stroke="black" cx="181" cy="-222" rx="65.5035" ry="29.3315"/>
<text text-anchor="middle" x="181" y="-224.8" font-family="Times,serif" font-size="14.00">d3.js</text>
<text text-anchor="middle" x="181" y="-208" font-family="Times,serif" font-size="14.00">visualizations</text>
</g>
<!-- require&#45;&gt;d3 -->
<g id="edge10" class="edge"><title>require&#45;&gt;d3</title>
<path fill="none" stroke="black" d="M214.218,-57.261C198.637,-67.0331 183.839,-79.8004 175,-96 160.577,-122.434 163.53,-156.886 169.272,-182.925"/>
<polygon fill="black" stroke="black" points="165.912,-183.919 171.672,-192.811 172.714,-182.268 165.912,-183.919"/>
</g>
<!-- templating -->
<g id="node7" class="node"><title>templating</title>
<ellipse fill="none" stroke="black" cx="454" cy="-126" rx="52.1762" ry="18"/>
<text text-anchor="middle" x="454" y="-120.4" font-family="Times,serif" font-size="14.00">templating</text>
</g>
<!-- require&#45;&gt;templating -->
<g id="edge2" class="edge"><title>require&#45;&gt;templating</title>
<path fill="none" stroke="black" d="M327.485,-58.1887C356.29,-73.4006 391.513,-92.0015 417.473,-105.71"/>
<polygon fill="black" stroke="black" points="416.111,-108.949 426.588,-110.524 419.38,-102.759 416.111,-108.949"/>
</g>
<!-- logging -->
<g id="node13" class="node"><title>logging</title>
<ellipse fill="none" stroke="black" cx="432" cy="-222" rx="40.5898" ry="18"/>
<text text-anchor="middle" x="432" y="-216.4" font-family="Times,serif" font-size="14.00">logging</text>
</g>
<!-- require&#45;&gt;logging -->
<g id="edge12" class="edge"><title>require&#45;&gt;logging</title>
<path fill="none" stroke="black" d="M396.7,-49.8659C448.051,-60.5893 499.659,-75.9291 515,-96 531.194,-117.186 526.676,-132.025 515,-156 505.105,-176.318 485.446,-192.158 467.744,-203.112"/>
<polygon fill="black" stroke="black" points="465.587,-200.319 458.727,-208.394 469.125,-206.36 465.587,-200.319"/>
</g>
<!-- moment&#45;&gt;d3 -->
<g id="edge14" class="edge"><title>moment&#45;&gt;d3</title>
<path fill="none" stroke="black" d="M296.587,-148.565C275.894,-161.533 249.302,-178.197 226.842,-192.272"/>
<polygon fill="black" stroke="black" points="224.755,-189.45 218.14,-197.726 228.472,-195.381 224.755,-189.45"/>
</g>
<!-- moment&#45;&gt;logging -->
<g id="edge16" class="edge"><title>moment&#45;&gt;logging</title>
<path fill="none" stroke="black" d="M357.537,-151.697C373.165,-166.242 392.779,-184.497 407.953,-198.619"/>
<polygon fill="black" stroke="black" points="405.734,-201.336 415.439,-205.586 410.503,-196.211 405.734,-201.336"/>
</g>
</g>
</svg>
